<svg width="30" height="36" viewBox="0 0 30 36" fill="none" xmlns="http://www.w3.org/2000/svg">
<path d="M26.7753 18.6592H3.21715C2.72357 18.6592 2.32052 19.2656 2.36578 19.9814C2.88307 28.4835 8.34045 35.1759 14.9962 35.1759C21.652 35.1759 27.1093 28.4867 27.6266 19.9814C27.6697 19.2656 27.2688 18.6592 26.7753 18.6592Z" fill="black"/>
<path fill-rule="evenodd" clip-rule="evenodd" d="M0.169012 3.98485C1.34273 1.75139 3.45794 0.360352 5.78844 0.360352C8.11894 0.360352 10.2341 1.75139 11.4079 3.98485C11.6849 4.51201 11.6139 5.26411 11.2494 5.66471C10.8849 6.06532 10.3648 5.96273 10.0877 5.43557C9.28288 3.90402 7.69959 2.75803 5.78844 2.75803C3.87729 2.75803 2.29399 3.90402 1.48914 5.43557C1.21211 5.96273 0.692014 6.06532 0.32747 5.66471C-0.0370726 5.26411 -0.108017 4.51201 0.169012 3.98485Z" fill="#414141"/>
<path fill-rule="evenodd" clip-rule="evenodd" d="M18.5921 3.98485C19.7658 1.75139 21.881 0.360352 24.2115 0.360352C26.5403 0.360352 28.6549 1.75172 29.8304 3.98385C30.1078 4.51059 30.0374 5.26279 29.6732 5.66395C29.3089 6.06511 28.7888 5.96331 28.5114 5.43657C27.7041 3.90368 26.1201 2.75803 24.2115 2.75803C22.3004 2.75803 20.7171 3.90402 19.9122 5.43557C19.6352 5.96273 19.1151 6.06532 18.7506 5.66471C18.386 5.26411 18.3151 4.51201 18.5921 3.98485Z" fill="#414141"/>
</svg>
